<mxfile host="app.diagrams.net" modified="2024-06-19T07:09:53.240Z" agent="Mozilla/5.0 (X11; Linux x86_64) AppleWebKit/537.36 (KHTML, like Gecko) Chrome/126.0.0.0 Safari/537.36" etag="ZZzQMQzv9lYsrIVsETl6" version="24.5.5" type="github">
  <diagram id="6a731a19-8d31-9384-78a2-239565b7b9f0" name="Page-1">
    <mxGraphModel dx="866" dy="564" grid="1" gridSize="10" guides="1" tooltips="1" connect="1" arrows="1" fold="1" page="1" pageScale="1" pageWidth="1169" pageHeight="827" background="none" math="0" shadow="0">
      <root>
        <mxCell id="0" />
        <mxCell id="1" parent="0" />
        <mxCell id="c9rLrG0v9ckR0KUuirpz-71" value="" style="edgeStyle=orthogonalEdgeStyle;rounded=0;orthogonalLoop=1;jettySize=auto;html=1;" edge="1" parent="1" source="c9rLrG0v9ckR0KUuirpz-59" target="c9rLrG0v9ckR0KUuirpz-62">
          <mxGeometry relative="1" as="geometry" />
        </mxCell>
        <mxCell id="c9rLrG0v9ckR0KUuirpz-73" value="" style="edgeStyle=orthogonalEdgeStyle;rounded=0;orthogonalLoop=1;jettySize=auto;html=1;" edge="1" parent="1" source="c9rLrG0v9ckR0KUuirpz-59" target="c9rLrG0v9ckR0KUuirpz-69">
          <mxGeometry relative="1" as="geometry" />
        </mxCell>
        <mxCell id="c9rLrG0v9ckR0KUuirpz-75" value="" style="edgeStyle=orthogonalEdgeStyle;rounded=0;orthogonalLoop=1;jettySize=auto;html=1;" edge="1" parent="1" source="c9rLrG0v9ckR0KUuirpz-59" target="c9rLrG0v9ckR0KUuirpz-74">
          <mxGeometry relative="1" as="geometry" />
        </mxCell>
        <mxCell id="c9rLrG0v9ckR0KUuirpz-59" value="Menu&lt;div&gt;start&lt;/div&gt;&lt;div&gt;options&lt;/div&gt;&lt;div&gt;exit&lt;/div&gt;" style="rounded=1;whiteSpace=wrap;html=1;" vertex="1" parent="1">
          <mxGeometry x="415" y="390" width="170" height="100" as="geometry" />
        </mxCell>
        <mxCell id="c9rLrG0v9ckR0KUuirpz-72" value="" style="edgeStyle=orthogonalEdgeStyle;rounded=0;orthogonalLoop=1;jettySize=auto;html=1;" edge="1" parent="1" source="c9rLrG0v9ckR0KUuirpz-62" target="c9rLrG0v9ckR0KUuirpz-63">
          <mxGeometry relative="1" as="geometry" />
        </mxCell>
        <mxCell id="c9rLrG0v9ckR0KUuirpz-62" value="&lt;div style=&quot;text-align: justify;&quot;&gt;&lt;span style=&quot;background-color: initial;&quot;&gt;Options&lt;/span&gt;&lt;/div&gt;&lt;div&gt;&lt;ul&gt;&lt;li style=&quot;text-align: justify;&quot;&gt;fx&lt;/li&gt;&lt;li style=&quot;text-align: justify;&quot;&gt;fps&lt;/li&gt;&lt;li style=&quot;text-align: justify;&quot;&gt;about&lt;/li&gt;&lt;/ul&gt;&lt;/div&gt;" style="rounded=1;whiteSpace=wrap;html=1;align=center;" vertex="1" parent="1">
          <mxGeometry x="160" y="390" width="160" height="100" as="geometry" />
        </mxCell>
        <mxCell id="c9rLrG0v9ckR0KUuirpz-63" value="about" style="rounded=1;whiteSpace=wrap;html=1;" vertex="1" parent="1">
          <mxGeometry x="160" y="540" width="160" height="90" as="geometry" />
        </mxCell>
        <mxCell id="c9rLrG0v9ckR0KUuirpz-68" style="edgeStyle=orthogonalEdgeStyle;rounded=0;orthogonalLoop=1;jettySize=auto;html=1;entryX=0.5;entryY=0;entryDx=0;entryDy=0;" edge="1" parent="1">
          <mxGeometry relative="1" as="geometry">
            <mxPoint x="760" y="414" as="sourcePoint" />
            <mxPoint x="760" y="414" as="targetPoint" />
          </mxGeometry>
        </mxCell>
        <mxCell id="c9rLrG0v9ckR0KUuirpz-69" value="Level&lt;div&gt;1&lt;/div&gt;&lt;div&gt;2&lt;/div&gt;&lt;div&gt;3&lt;/div&gt;&lt;div&gt;End&lt;/div&gt;" style="rounded=1;whiteSpace=wrap;html=1;" vertex="1" parent="1">
          <mxGeometry x="415" y="210" width="170" height="100" as="geometry" />
        </mxCell>
        <mxCell id="c9rLrG0v9ckR0KUuirpz-74" value="QUIT" style="rounded=1;whiteSpace=wrap;html=1;" vertex="1" parent="1">
          <mxGeometry x="415" y="560" width="170" height="100" as="geometry" />
        </mxCell>
      </root>
    </mxGraphModel>
  </diagram>
</mxfile>
